<?xml version="1.0" encoding="UTF-8"?>
<!DOCTYPE svg PUBLIC "-//W3C//DTD SVG 1.1//EN" "http://www.w3.org/Graphics/SVG/1.1/DTD/svg11.dtd">
<!-- Creator: CorelDRAW 2021 (64-Bit) -->
<svg xmlns="http://www.w3.org/2000/svg" xml:space="preserve" width="29.812mm" height="15.5412mm" version="1.1" style="shape-rendering:geometricPrecision; text-rendering:geometricPrecision; image-rendering:optimizeQuality; fill-rule:evenodd; clip-rule:evenodd"
viewBox="0 0 1478.59 770.8"
 xmlns:xlink="http://www.w3.org/1999/xlink"
 xmlns:xodm="http://www.corel.com/coreldraw/odm/2003">
 <defs>
  <style type="text/css">
   <![CDATA[
    .fil0 {fill:#FEFEFE;fill-rule:nonzero}
   ]]>
  </style>
 </defs>
 <g id="Слой_x0020_1">
  <metadata id="CorelCorpID_0Corel-Layer"/>
  <g id="_1217336182400">
   <g id="Layer_2" data-name="Layer 2">
    <path class="fil0" d="M1053.69 15.63c-10,9.91 -15.63,23.42 -15.63,37.52 0,14.09 5.63,27.61 15.63,37.52l243.08 243.08 -1243.93 -0c-29.18,0 -52.84,23.67 -52.84,52.85 0,29.18 23.66,52.84 52.84,52.84l1242.88 0 -242.02 241.49c-9.84,9.89 -15.37,23.3 -15.37,37.25 0,13.96 5.53,27.37 15.37,37.26 9.89,9.84 23.3,15.37 37.25,15.37 13.96,0 27.37,-5.53 37.26,-15.37l336.09 -336.09c9.13,-8.76 14.3,-20.89 14.3,-33.55 0,-12.67 -5.17,-24.79 -14.31,-33.56l-335.55 -336.61c-9.91,-10 -23.42,-15.63 -37.52,-15.63 -14.09,0 -27.61,5.63 -37.53,15.63l0 0z"/>
   </g>
  </g>
 </g>
</svg>
