<svg width="25" height="19" viewBox="0 0 25 19" fill="none" xmlns="http://www.w3.org/2000/svg">
<path d="M20.8333 -1.52588e-05H4.16667C1.875 -1.52588e-05 0 1.87498 0 4.16665V14.5833C0 16.875 1.875 18.75 4.16667 18.75H20.8333C23.125 18.75 25 16.875 25 14.5833V4.16665C25 1.87498 23.125 -1.52588e-05 20.8333 -1.52588e-05ZM22.5 6.04165L14.2708 11.5625C13.75 11.875 13.125 12.0833 12.5 12.0833C11.875 12.0833 11.25 11.875 10.7292 11.5625L2.5 6.04165C2.08333 5.72915 1.97917 5.10415 2.29167 4.58332C2.60417 4.16665 3.22917 4.06248 3.75 4.37498L11.9792 9.89582C12.2917 10.1042 12.8125 10.1042 13.125 9.89582L21.3542 4.37498C21.875 4.06248 22.5 4.16665 22.8125 4.68748C23.0208 5.10415 22.9167 5.72915 22.5 6.04165Z" fill="#0F78D6"/>
</svg>
