<svg width="25" height="25" viewBox="0 0 25 25" fill="none" xmlns="http://www.w3.org/2000/svg">
<path d="M5.03472 10.8264C7.03472 14.7569 10.25 17.9722 14.1875 19.9722L17.2431 16.9097C17.625 16.5278 18.1736 16.4167 18.6528 16.5694C20.2083 17.0833 21.8819 17.3611 23.6111 17.3611C24.3819 17.3611 25 17.9792 25 18.75V23.6111C25 24.3819 24.3819 25 23.6111 25C10.5694 25 0 14.4305 0 1.38888C0 0.618048 0.625 -7.62939e-06 1.38889 -7.62939e-06H6.25C7.02083 -7.62939e-06 7.63889 0.618048 7.63889 1.38888C7.63889 3.11805 7.91667 4.79166 8.43055 6.34721C8.58333 6.82638 8.47222 7.37499 8.09028 7.75694L5.03472 10.8264Z" fill="#0F78D6"/>
</svg>
