<?xml version="1.0" standalone="no"?>
<!DOCTYPE svg PUBLIC "-//W3C//DTD SVG 20010904//EN"
 "http://www.w3.org/TR/2001/REC-SVG-20010904/DTD/svg10.dtd">
<svg version="1.0" xmlns="http://www.w3.org/2000/svg"
 width="664.000000pt" height="664.000000pt" viewBox="0 0 664.000000 664.000000"
 preserveAspectRatio="xMidYMid meet">
<metadata>
Created by potrace 1.14, written by Peter Selinger 2001-2017
</metadata>
<g transform="translate(0.000000,664.000000) scale(0.100000,-0.100000)"
fill="#000000" stroke="none">
<path d="M945 6587 c8 -68 10 -87 24 -182 51 -339 79 -435 245 -846 135 -335
141 -347 457 -984 315 -632 428 -874 531 -1130 22 -55 46 -113 53 -130 7 -16
30 -75 50 -130 20 -55 44 -118 52 -140 82 -219 209 -681 248 -900 29 -160 42
-249 50 -340 2 -33 8 -94 11 -135 4 -41 6 -85 5 -98 l-1 -22 648 0 c512 0 649
3 649 13 0 25 15 213 18 242 3 17 7 55 10 85 3 30 7 64 9 75 2 11 7 40 11 65
5 37 34 187 51 265 2 11 6 30 8 42 33 162 178 633 263 853 170 440 271 662
651 1425 260 522 336 684 427 915 31 80 63 159 70 175 82 197 125 345 165 574
24 141 32 194 44 299 l8 62 -2382 0 -2381 0 6 -53z m3228 -1001 c-4 -6 -39
-60 -78 -121 -253 -388 -506 -857 -696 -1288 l-74 -168 -24 58 c-56 131 -187
383 -326 628 -81 143 -157 276 -168 295 -10 19 -91 161 -179 315 -88 154 -162
283 -164 286 -2 3 383 6 856 6 617 0 857 -3 853 -11z"/>
<path d="M1719 1037 c-1 -1 -2 -233 -3 -514 -1 -347 2 -514 9 -516 5 -2 728
-3 1605 -3 l1595 1 0 515 0 515 -1602 2 c-882 1 -1604 1 -1604 0z"/>
</g>
</svg>
